<svg xmlns="http://www.w3.org/2000/svg" xmlns:xlink="http://www.w3.org/1999/xlink" version="1.1" x="0px" y="0px" viewBox="0 0 64 80" style="enable-background:new 0 0 64 64;" xml:space="preserve"><title>Living, hotel, window, room, sofa</title><g><path d="M49,38c-0.5,0-0.9-0.3-1-0.8l-1.9-9.6C40.8,24.2,37,16.9,37,10c0-0.6,0.4-1,1-1s1,0.4,1,1c0,6.4,3.6,13.2,8.5,16.1   c0.2,0.1,0.4,0.4,0.5,0.7l2,10c0.1,0.5-0.2,1.1-0.8,1.2C49.1,38,49.1,38,49,38z"/></g><g><path d="M15,38c-0.1,0-0.1,0-0.2,0c-0.5-0.1-0.9-0.6-0.8-1.2l2-10c0.1-0.3,0.2-0.5,0.5-0.7c4.9-3,8.5-9.7,8.5-16.1c0-0.6,0.4-1,1-1   s1,0.4,1,1c0,6.9-3.8,14.2-9.1,17.6L16,37.2C15.9,37.7,15.5,38,15,38z"/></g><g><path d="M56,11c-1.2,0-2.3-0.5-3-1.4c-0.7,0.8-1.8,1.4-3,1.4s-2.3-0.5-3-1.4c-0.7,0.8-1.8,1.4-3,1.4s-2.3-0.5-3-1.4   c-0.7,0.8-1.8,1.4-3,1.4s-2.3-0.5-3-1.4c-0.7,0.8-1.8,1.4-3,1.4s-2.3-0.5-3-1.4c-0.7,0.8-1.8,1.4-3,1.4s-2.3-0.5-3-1.4   c-0.7,0.8-1.8,1.4-3,1.4s-2.3-0.5-3-1.4c-0.7,0.8-1.8,1.4-3,1.4s-2.3-0.5-3-1.4C10.3,10.5,9.2,11,8,11c-1.9,0-3.4-1.3-3.9-3H4   C3,8,2,7.7,1.2,7C0.5,6.3,0,5.3,0,4.3C0,4.2,0,4.1,0,4l0-3c0-0.6,0.4-1,1-1h62c0.6,0,1,0.4,1,1v3c0.1,2.1-1.6,3.9-3.7,4   c-0.1,0-0.2,0-0.3,0l-0.1,0C59.4,9.7,57.9,11,56,11z M54,7c0,1.1,0.9,2,2,2s2-0.9,2-2c0-0.6,0.4-1,1-1h1c0.1,0,0.1,0,0.2,0   c1,0,1.9-0.9,1.8-2l0-2H2v2c0,0.1,0,0.1,0,0.2c0,0.5,0.2,1,0.6,1.3C3,5.8,3.5,6,4,6l1,0c0.6,0,1,0.4,1,1c0,1.1,0.9,2,2,2s2-0.9,2-2   c0-0.6,0.4-1,1-1s1,0.4,1,1c0,1.1,0.9,2,2,2s2-0.9,2-2c0-0.6,0.4-1,1-1s1,0.4,1,1c0,1.1,0.9,2,2,2s2-0.9,2-2c0-0.6,0.4-1,1-1   s1,0.4,1,1c0,1.1,0.9,2,2,2s2-0.9,2-2c0-0.6,0.4-1,1-1s1,0.4,1,1c0,1.1,0.9,2,2,2c1.1,0,2-0.9,2-2c0-0.6,0.4-1,1-1s1,0.4,1,1   c0,1.1,0.9,2,2,2s2-0.9,2-2c0-0.6,0.4-1,1-1s1,0.4,1,1c0,1.1,0.9,2,2,2s2-0.9,2-2c0-0.6,0.4-1,1-1s1,0.4,1,1c0,1.1,0.9,2,2,2   s2-0.9,2-2c0-0.6,0.4-1,1-1S54,6.4,54,7z"/></g><g><rect x="52" y="8" width="2" height="30"/></g><g><rect x="10" y="8" width="2" height="30"/></g><g><path d="M63,61H1c-0.6,0-1-0.4-1-1V44c0-0.6,0.4-1,1-1h6c0.6,0,1,0.4,1,1v9h48v-9c0-0.6,0.4-1,1-1h6c0.6,0,1,0.4,1,1v16   C64,60.6,63.6,61,63,61z M2,59h60V45h-4v9c0,0.6-0.4,1-1,1H7c-0.6,0-1-0.4-1-1v-9H2V59z"/></g><g><path d="M60,45c-0.6,0-1-0.4-1-1v-6H5v6c0,0.6-0.4,1-1,1s-1-0.4-1-1v-7c0-0.6,0.4-1,1-1h56c0.6,0,1,0.4,1,1v7   C61,44.6,60.6,45,60,45z"/></g><g><path d="M7,64H4c-0.6,0-1-0.4-1-1v-3c0-0.6,0.4-1,1-1h3c0.6,0,1,0.4,1,1v3C8,63.6,7.6,64,7,64z M5,62h1v-1H5V62z"/></g><g><path d="M60,64h-3c-0.6,0-1-0.4-1-1v-3c0-0.6,0.4-1,1-1h3c0.6,0,1,0.4,1,1v3C61,63.6,60.6,64,60,64z M58,62h1v-1h-1V62z"/></g><g><path d="M31,55H7c-0.6,0-1-0.4-1-1v-3c0-1.7,1.3-3,3-3h20c1.7,0,3,1.3,3,3v3C32,54.6,31.6,55,31,55z M8,53h22v-2c0-0.6-0.4-1-1-1H9   c-0.6,0-1,0.4-1,1V53z"/></g><g><path d="M56,55H32c-0.6,0-1-0.4-1-1v-3c0-1.7,1.3-3,3-3h20c1.7,0,3,1.3,3,3v3C57,54.6,56.6,55,56,55z M33,53h22v-2c0-0.6-0.4-1-1-1   H34c-0.6,0-1,0.4-1,1V53z"/></g></svg>