<svg xmlns="http://www.w3.org/2000/svg" viewBox="0 0 64 80" x="0px" y="0px"><g><path d="M61,14H43a1,1,0,0,0-1,1V38H20V35a1,1,0,0,0-1-1H16v2h2v2H14V34H12v4H8V36h2V34H7a1,1,0,0,0-1,1v3H3a1,1,0,0,0-1,1V61a1,1,0,0,0,1,1H61a1,1,0,0,0,1-1V15A1,1,0,0,0,61,14ZM44,16H60V28H44ZM42,44H24V40H42ZM4,40H22v4H4Zm0,6H22V60H4Zm20,0h8V60H24Zm10,0h8V60H34ZM44,60V30H60V60Z"/><rect x="46" y="20" width="2" height="4"/><rect x="46" y="34" width="2" height="4"/><circle cx="7" cy="42" r="1"/><circle cx="11" cy="42" r="1"/><circle cx="15" cy="42" r="1"/><circle cx="19" cy="42" r="1"/><path d="M3,21H23a1,1,0,0,0,1-1V17a1,1,0,0,0-.293-.707l-4-4A1,1,0,0,0,19,12H18V3a1,1,0,0,0-1-1H9A1,1,0,0,0,8,3v9H7a1,1,0,0,0-.707.293l-4,4A1,1,0,0,0,2,17v3A1,1,0,0,0,3,21ZM10,4h6v8H10ZM4,17.414,7.414,14H18.586L22,17.414V19H4Z"/><path d="M19,48H7a1,1,0,0,0-1,1v8a1,1,0,0,0,1,1H19a1,1,0,0,0,1-1V49A1,1,0,0,0,19,48Zm-1,8H8V50H18Z"/><rect x="31" y="41" width="4" height="2"/><rect x="28" y="51" width="2" height="4"/><rect x="36" y="51" width="2" height="4"/><path d="M26,27h6a1,1,0,0,0,1-1V25a4,4,0,0,0-3-3.858V2H28V21.142A4,4,0,0,0,25,25v1A1,1,0,0,0,26,27Zm3-4a2,2,0,0,1,2,2H27A2,2,0,0,1,29,23Z"/><path d="M33,19h6a1,1,0,0,0,1-1V17a4,4,0,0,0-3-3.858V2H35V13.142A4,4,0,0,0,32,17v1A1,1,0,0,0,33,19Zm3-4a2,2,0,0,1,2,2H34A2,2,0,0,1,36,15Z"/></g></svg>