<svg xmlns="http://www.w3.org/2000/svg" data-name="Layer 1" viewBox="0 0 128 160" x="0px" y="0px"><title>Interior Design final 2</title><path d="M126,0H2A2,2,0,0,0,2,4H4V9L.09,21.44A2,2,0,0,0,0,22V104.5a2,2,0,0,0,1.64,2,2.06,2.06,0,0,0,.36,0,2,2,0,0,0,1.87-1.29A3.16,3.16,0,0,1,5.33,104c1.34-.6,4.57-1.22,11.09,1.32a2,2,0,0,0,1.93-.27c.34-.26,8.52-6.24,16.26-.26a2,2,0,0,0,2.36.06c.09-.06,9.3-6.35,13.41-.72A2,2,0,0,0,54,103V20.64a2,2,0,0,0-.09-.6L50.44,9V4H126a2,2,0,0,0,0-4ZM15.25,100.72c-4.62-1.44-8.4-1.61-11.25-.45V22.35L7.95,9.87A2,2,0,0,0,8,9.26V4h4V8a2,2,0,0,0,.06.49l3.19,12.76Zm4-.74V21a2,2,0,0,0-.06-.49L16,7.75V4h9V98a2,2,0,0,0,0,.34A19.79,19.79,0,0,0,19.25,100Zm18-92.22L34.06,20.51A2,2,0,0,0,34,21V99.79a15.73,15.73,0,0,0-5-1.46A2,2,0,0,0,29,98V4h8.25ZM50,98.77c-3.81-1.79-8.45-.69-12,1V21.25L41.19,8.49A2,2,0,0,0,41.25,8V4h5.19V9.26a2,2,0,0,0,.09.6L50,20.94Z"/><path d="M116.86,15.5H106a2,2,0,0,0-2,2V28h-3a2,2,0,0,0,0,4h10a2,2,0,0,0,0-4h-3V19.5h8.86A7.19,7.19,0,0,1,124,26.73V108H100.38A32,32,0,0,0,117,80a2,2,0,0,0-2-2H105V74h9.5a2,2,0,0,0,0-4H78.15a5.89,5.89,0,0,1,0,4h6.52v4H58v4H84.67v7.67h0a2,2,0,0,0,0,.39,2,2,0,0,0,.06.19c0,.06,0,.12.06.18a2,2,0,0,0,.09.18c0,.06.06.11.09.17l.13.16.12.15a2,2,0,0,0,.3.25h0l.07,0a2,2,0,0,0,.28.15l.18.05.2.06.29,0h.1a2,2,0,0,0,.39,0l.22-.07.15,0,.21-.11.14-.07a2,2,0,0,0,.2-.16l.11-.09a2,2,0,0,0,.25-.31h0l2.06-3.09L94,91.75a2,2,0,0,0,1.5.67h.21a2,2,0,0,0,1.53-1l1.7-3,2.65,2.65a2,2,0,0,0,.31.25l.15.08.2.1.2.06.17.05a2,2,0,0,0,.78,0l.17-.05.2-.06.2-.1.15-.08a2,2,0,0,0,.55-.55s.05-.1.08-.15a1.17,1.17,0,0,0,.17-.4c0-.06,0-.11.05-.17a2,2,0,0,0,0-.39V82h7.93a28.15,28.15,0,0,1-28.11,26H63.18a28.31,28.31,0,0,1-6.87-.84,6.06,6.06,0,0,1-1,.84H27.15a5.89,5.89,0,0,1,0,4H124v12H4V112H8.85a5.89,5.89,0,0,1,0-4H2a2,2,0,0,0-2,2v16a2,2,0,0,0,2,2H126a2,2,0,0,0,2-2V26.73A11.19,11.19,0,0,0,116.86,15.5ZM101,84.84l-1.09-1.09a2,2,0,0,0-3.15.42L95.14,87l-3.48-3.92a2,2,0,0,0-3,0V74.67H101Z"/><path d="M70.38,9.63h-6a2,2,0,0,0-2,2v9.13h-.62a2,2,0,0,0,0,4H90.5a2,2,0,0,0,0-4H86.38V8.63a2,2,0,0,0-2-2h-6a2,2,0,0,0-2,2V20.75h-4V11.63A2,2,0,0,0,70.38,9.63Zm-2,10.88h-2V13.63h2Zm12-9.87h2V20.5h-2Z"/><path d="M21.5,112a2,2,0,0,0,0-4h-7a2,2,0,0,0,0,4Z"/><path d="M65.5,70a2,2,0,0,0,0,4h7a2,2,0,0,0,0-4Z"/><path d="M58,74h1.85a5.89,5.89,0,0,1,0-4H58Z"/></svg>