<svg xmlns="http://www.w3.org/2000/svg" viewBox="0 0 88 110" x="0px" y="0px"><title>Bed, bedroom, love, romance, room, valentine, wedding</title><g><path d="M78,21a5.0059,5.0059,0,0,0-5,5v7H54.4141l4.5332-4.5332c5.9137-5.9137,2.7505-16.488-5.45-17.4063a9.6028,9.6028,0,0,0-9.0494,4.3047L44,16.0376l-.4487-.6733a9.6125,9.6125,0,0,0-9.0489-4.3038c-8.2209.9206-11.3451,11.5109-5.45,17.4063L33.5859,33H15V26A5,5,0,0,0,5,26v1a3,3,0,0,0,6,0V26a1,1,0,0,0-2,0v1a1,1,0,0,1-2,0V26a3,3,0,0,1,6,0V59a7.0078,7.0078,0,0,0-7,7V76a1,1,0,0,0,1,1H18a1,1,0,0,0,1-1V74a3.0033,3.0033,0,0,1,3-3H66a3.0033,3.0033,0,0,1,3,3v2a1,1,0,0,0,1,1H81a1,1,0,0,0,1-1V66a7.0078,7.0078,0,0,0-7-7V26a3,3,0,0,1,6,0v1a1,1,0,0,1-2,0V26a1,1,0,0,0-2,0v1a3,3,0,0,0,6,0V26A5.0059,5.0059,0,0,0,78,21ZM30.4668,27.0527c-4.6584-4.6584-2.3338-13.2666,4.2583-14.0044a7.5159,7.5159,0,0,1,7.1626,3.4263l1.28,1.92a1.0377,1.0377,0,0,0,1.664,0l1.28-1.9189a7.5131,7.5131,0,0,1,7.1631-3.4273c6.61.74,8.9052,9.3576,4.2583,14.0044L51.5859,33H36.4141ZM80,66v9H71V74a5.0059,5.0059,0,0,0-5-5H22a5.0059,5.0059,0,0,0-5,5v1H8V66a5.0059,5.0059,0,0,1,5-5H75A5.0059,5.0059,0,0,1,80,66ZM39,53H29V50a1.0013,1.0013,0,0,1,1-1h8a1.0013,1.0013,0,0,1,1,1Zm24,2a5.0084,5.0084,0,0,1,4.8994,4H20.1006A5.0084,5.0084,0,0,1,25,55Zm-4-2H49V50a1.0013,1.0013,0,0,1,1-1h8a1.0013,1.0013,0,0,1,1,1Zm10.92,6A7.0048,7.0048,0,0,0,63,53H61V50a3.0033,3.0033,0,0,0-3-3H50a3.0033,3.0033,0,0,0-3,3v3H41V50a3.0033,3.0033,0,0,0-3-3H30a3.0033,3.0033,0,0,0-3,3v3H25a7.0048,7.0048,0,0,0-6.92,6H15V35H73V59ZM36.5537,15.002a1,1,0,0,1-1,1,4.4113,4.4113,0,0,0-4.1763,3.03l-.0493.1372a1,1,0,1,1-1.8818-.6767l.0561-.1563a6.4329,6.4329,0,0,1,6.0513-4.3344A1,1,0,0,1,36.5537,15.002Z"/></g></svg>