<svg xmlns="http://www.w3.org/2000/svg" viewBox="0 0 64 80" x="0px" y="0px"><title>clean-dusting-duster-dust-brusha</title><g><path d="M21.344,56.9,21.081,60H6.92L4.009,25.316a5.96,5.96,0,0,1,3.062-5.545A5.01,5.01,0,0,0,9.62,15.41v-3.1A8.924,8.924,0,0,0,6.987,5.953L6.034,5H21.966l-.953.953A8.924,8.924,0,0,0,18.38,12.31v2.7h2v-2.7a6.941,6.941,0,0,1,2.047-4.943l2.66-2.66A1,1,0,0,0,24.38,3H3.62a1,1,0,0,0-.707,1.707l2.66,2.66A6.941,6.941,0,0,1,7.62,12.31v3.1a3.01,3.01,0,0,1-1.53,2.618,7.957,7.957,0,0,0-4.076,7.426L5,61.084A1,1,0,0,0,6,62H22a1,1,0,0,0,1-.916l.34-4.015.974-10.275-1.991-.19-.974,10.282"/><path d="M59.616,50.007a3,3,0,0,0-4.243,4.242,1,1,0,0,1,0,1.414,1.02,1.02,0,0,1-1.345.062c-.019-.023-.041-.046-.062-.068L47.388,49.08a1,1,0,0,0-1.414,0l-.74.74-3.089-3.089,2.047-5.768,1.749-1.75A1,1,0,0,0,44.527,37.8l-1.909,1.909a1,1,0,0,0-.235.373l-1.8,5.083L39.316,43.9l2.047-5.768,1.749-1.749A1,1,0,0,0,41.7,34.971L39.789,36.88a1,1,0,0,0-.235.373l-1.8,5.083-1.262-1.262,2.047-5.768,1.749-1.749a1,1,0,0,0-1.414-1.414l-1.909,1.909a.974.974,0,0,0-.235.373l-1.8,5.083-1.263-1.263,2.048-5.768,1.749-1.749a1,1,0,1,0-1.414-1.415l-1.909,1.91a.992.992,0,0,0-.236.372l-1.8,5.084-1.262-1.262,2.047-5.769L34.627,27.9a1,1,0,0,0-1.414-1.414L31.3,28.4a.988.988,0,0,0-.236.373l-1.8,5.083L28,32.589,30.05,26.82,31.8,25.071a1,1,0,0,0-1.414-1.414l-1.909,1.909a1,1,0,0,0-.236.373l-1.8,5.084L25.174,29.76l2.048-5.768,1.042-1.043a1,1,0,1,0-1.414-1.414l-1.2,1.2a1.018,1.018,0,0,0-.235.372l-1.8,5.085-1.272-1.272,1.851-5.554.541-.54a1,1,0,0,0-1.415-1.414l-.707.707a1,1,0,0,0-.241.391l-1.609,4.829-1.285-1.284,1.211-4.838.51-.512a1,1,0,0,0-1.414-1.414L19.071,18a1,1,0,0,0-.262.465l-.986,3.944-.166-.166-.708-.708-.328-.329.6-3.01a1,1,0,0,0-1.961-.392l-.575,2.872-2.812.524a1,1,0,0,0,.367,1.967l2.958-.552,1.043,1.042.166.166-3.944.986a1,1,0,0,0-.465.262l-.707.707a1,1,0,1,0,1.414,1.414l.512-.51,4.838-1.211,1.284,1.285-4.829,1.609a1,1,0,0,0-.391.241l-.707.707a1,1,0,1,0,1.414,1.415l.54-.54,5.554-1.852,1.272,1.272-5.085,1.8a1.018,1.018,0,0,0-.372.235l-1.2,1.2a1,1,0,1,0,1.414,1.414l1.043-1.042,5.768-2.048,1.263,1.263-5.084,1.8a1,1,0,0,0-.373.236l-1.909,1.909A1,1,0,1,0,19.071,37.8L20.82,36.05,26.589,34l1.262,1.262-5.083,1.8a.988.988,0,0,0-.373.236l-1.91,1.909A1,1,0,1,0,21.9,40.627l1.749-1.749,5.769-2.047,1.262,1.262L25.6,39.9a.992.992,0,0,0-.372.236l-1.91,1.909a1,1,0,0,0,1.415,1.414l1.749-1.749,5.768-2.048,1.263,1.263-5.083,1.8a.974.974,0,0,0-.373.235L26.143,44.87a1,1,0,1,0,1.414,1.414l1.749-1.749,5.768-2.047,1.262,1.262-5.083,1.8a1,1,0,0,0-.373.235L28.971,47.7a1,1,0,1,0,1.414,1.414l1.749-1.749L37.9,45.316l1.262,1.262-5.083,1.8a1,1,0,0,0-.373.235L31.8,50.527a1,1,0,1,0,1.414,1.414l1.75-1.749,5.768-2.047,3.089,3.089-.674.674a1,1,0,0,0,0,1.414l6.485,6.486a.978.978,0,0,0,.086.1,7,7,0,1,0,9.9-9.9ZM58.2,58.491a5,5,0,0,1-6.986.083c-.025-.031-.051-.06-.079-.089l-5.87-5.87.671-.672,0,0,0,0,.738-.737,5.778,5.778a.887.887,0,0,0,.086.1,3.072,3.072,0,0,0,4.242,0,3,3,0,0,0,0-4.242A1,1,0,1,1,58.2,51.421,5.005,5.005,0,0,1,58.2,58.491Z"/><path d="M36,17a3,3,0,0,1,3,3h2a3,3,0,1,1,3,3v2a4.865,4.865,0,0,0,.5-.051V25a2.5,2.5,0,0,1,0,5v2a4.489,4.489,0,0,0,2.631-8.134A4.981,4.981,0,1,0,40,17.031,4.985,4.985,0,0,0,31,20h2A3,3,0,0,1,36,17Z"/><rect x="49" y="39" width="2" height="2"/><rect x="49" y="34" width="2" height="2"/><rect x="30" y="57" width="2" height="2"/><rect x="26" y="53" width="2" height="2"/></g></svg>