<svg xmlns="http://www.w3.org/2000/svg" xmlns:xlink="http://www.w3.org/1999/xlink" version="1.1" x="0px" y="0px" viewBox="0 0 100 125" style="enable-background:new 0 0 100 100;" xml:space="preserve"><g><path d="M28.2763672,81H32c0.5527344,0,1-0.4477539,1-1s-0.4472656-1-1-1h-3.7236328   c-0.2373047,0-0.4414063-0.1772461-0.4746094-0.4116211l-0.3359375-2.3530273   c-0.078125-0.546875-0.5859375-0.9272461-1.1318359-0.8486328c-0.546875,0.0776367-0.9267578,0.5844727-0.8486328,1.1308594   l0.3359375,2.3540039C25.9951172,80.0849609,27.0507813,81,28.2763672,81z"/><path d="M36,81h1c0.5527344,0,1-0.4477539,1-1s-0.4472656-1-1-1h-1c-0.5527344,0-1,0.4477539-1,1S35.4472656,81,36,81z"/><path d="M72.96875,62.125h-0.9995117c-0.4831543-3.0925903-3.1577148-5.46875-6.3833008-5.46875   c-0.5019531,0-0.9868164,0.078186-1.4609375,0.1920166V44.4375h8.2226563c2.0996094,0,3.8085938-1.7084961,3.8085938-3.8081055   V25.9375c0-4.1699219-3.3925781-7.5625-7.5625-7.5625h-6.125l-3.75-4.0541992   c-0.013916-0.0149536-0.0341797-0.020874-0.0488281-0.0348511c-0.0693359-0.0666504-0.1462402-0.1217041-0.2314453-0.1657715   c-0.0310059-0.0159302-0.0600586-0.0309448-0.0922852-0.0435791c-0.1003418-0.0394287-0.2055664-0.0647583-0.3166504-0.0698853   C58.019043,14.0062256,58.0097656,14.0001221,57.9990234,14c-0.0019531,0-0.0041504,0.0012207-0.0063477,0.0012207   C57.9897461,14.0012207,57.9873047,14,57.984375,14h-20.34375c-0.0029297,0-0.0053711,0.0012207-0.0083008,0.0012207   C37.630127,14.0012207,37.6281738,14,37.6259766,14c-0.0107422,0.0001221-0.0200195,0.0062256-0.0305176,0.0067139   c-0.111084,0.005127-0.2163086,0.0304565-0.3166504,0.0698853c-0.0322266,0.0126343-0.0612793,0.0276489-0.0922852,0.0435791   c-0.0852051,0.0440674-0.1621094,0.0991211-0.2314453,0.1657715c-0.0146484,0.0139771-0.0349121,0.0198975-0.0488281,0.0348511   l-3.75,4.0541992h-6.125c-4.1699219,0-7.5625,3.3925781-7.5625,7.5625v14.6918945   c0,2.0996094,1.7089844,3.8081055,3.8085938,3.8081055H31.5v12.289917c-1.0610352-0.7374268-2.3156738-1.164917-3.6484375-1.164917   c-3.5664063,0-6.46875,2.9018555-6.46875,6.46875c0,0.0321655,0.0041504,0.0618286,0.0046387,0.09375H20.46875   c-1.1425781,0-2.2167969,0.4458008-3.0253906,1.2553711C16.6337891,64.1899414,16.1875,65.2646484,16.1875,66.40625   c0,2.0586548,1.4614258,3.7805176,3.4003906,4.1881104l1.5419922,10.7904053C21.5058594,84.0161133,23.7929688,86,26.4501953,86   h40.5371094c2.6572266,0,4.9443359-1.9838867,5.3203125-4.6147461l1.5422363-10.7922363   c0.8059082-0.168457,1.5480957-0.5638428,2.1442871-1.1608887C76.8037109,68.6225586,77.25,67.5478516,77.25,66.40625   C77.25,64.0454102,75.3291016,62.125,72.96875,62.125z M74.15625,40.6293945c0,0.9970703-0.8115234,1.8081055-1.8085938,1.8081055   H64.125v-2.375h10.03125V40.6293945z M57.9638672,16.4501953l2.8779297,3.1113281l-4.2841797,9.1987305   c-0.2451172,0.5249023-0.7109375,0.8925781-1.2783203,1.0083008c-0.5644531,0.1166992-1.140625-0.0395508-1.5703125-0.4262695   l-3.1938477-2.8684082c-0.0002441-0.0002441-0.0002441-0.0004883-0.0004883-0.0007324l-1.2573242-1.1290283l6.5795898-6.7213745   L57.9638672,16.4501953z M55.6044922,16L47.8125,23.9604492L40.0205078,16H55.6044922z M48.8466797,27.6635132v4.956604   c0,0.5883789-0.4638672,1.0673828-1.0341797,1.0673828s-1.0341797-0.4790039-1.0341797-1.0673828v-4.956604l0.7072754-0.6353149   l0.3269043-0.293335l0.3269043,0.293335L48.8466797,27.6635132z M37.6611328,16.4501953l2.1269531,2.1725464l6.5795898,6.7213745   l-1.2573242,1.1290283c-0.0002441,0.0002441-0.0002441,0.0004883-0.0004883,0.0007324l-3.1938477,2.8684082   c-0.4306641,0.3867188-1.0029297,0.5429688-1.5703125,0.4262695c-0.5673828-0.1157227-1.0332031-0.4833984-1.2783203-1.0083008   l-4.2841797-9.1987305L37.6611328,16.4501953z M21.46875,25.9375c0-3.0673828,2.4951172-5.5625,5.5625-5.5625h5.925293   l4.2983398,9.2299805c0.5146484,1.1054688,1.4951172,1.8789063,2.6904297,2.1230469   c0.2587891,0.0532227,0.5185547,0.0791016,0.7763672,0.0791016c0.9277344,0,1.8203125-0.3388672,2.5302734-0.9765625   l1.5263672-1.3708496v3.1604004c0,1.6914063,1.3613281,3.0673828,3.0341797,3.0673828s3.0341797-1.3759766,3.0341797-3.0673828   v-3.1604004l1.5263672,1.3708496c0.7099609,0.6376953,1.6025391,0.9765625,2.5302734,0.9765625   c0.2578125,0,0.5175781-0.0258789,0.7763672-0.0791016c1.1953125-0.2441406,2.1757813-1.0175781,2.6904297-2.1230469   L62.668457,20.375h5.925293c3.0673828,0,5.5625,2.4951172,5.5625,5.5625v12.125H64.125v-3.375c0-0.5522461-0.4472656-1-1-1   s-1,0.4477539-1,1v8.75v10.1763306c-1.3427734-2.1124878-3.699707-3.5200806-6.3828125-3.5200806   c-2.7480469,0-5.2138672,1.4780273-6.5390625,3.7666016c-1.8242188-2.3354492-4.6640625-3.7666016-7.6796875-3.7666016   c-3.3100586,0-6.2595215,1.6886597-8.0234375,4.2495117V43.4375v-8.75c0-0.5522461-0.4472656-1-1-1s-1,0.4477539-1,1v3.375   H21.46875V25.9375z M23.2773438,42.4375c-0.9970703,0-1.8085938-0.8110352-1.8085938-1.8081055V40.0625H31.5v2.375H23.2773438z    M27.8515625,57.5625c1.5439453,0,2.9648438,0.8007813,3.7910156,2.1293945   c0.0820313,0.1357422,0.1640625,0.2792969,0.2353516,0.4331055c0.1972656,0.4223633,0.6552734,0.6499023,1.1152344,0.5546875   c0.4550781-0.097168,0.7832031-0.4960938,0.7910156-0.9619141c0.0683594-4.2041016,3.5400391-7.6240234,7.7392578-7.6240234   c2.9902344,0,5.6591797,1.6777344,6.9638672,4.3789063c0.1835938,0.378418,0.5791016,0.605957,1.0009766,0.5600586   c0.4179688-0.0424805,0.765625-0.3417969,0.8691406-0.7490234c0.6259766-2.4667969,2.8398438-4.1899414,5.3847656-4.1899414   c3.0673828,0,5.5625,2.4951172,5.5625,5.5625c0,0.3300781-0.0341797,0.6743164-0.1015625,1.0239258   c-0.0791016,0.4091797,0.1035156,0.8242188,0.4580078,1.0424805c0.3554688,0.2172852,0.8095703,0.1928711,1.1376953-0.0634766   c0.2822266-0.2197266,0.5244141-0.3754883,0.7939453-0.5068359c0.6220703-0.3291016,1.2929688-0.4960938,1.9931641-0.4960938   c2.1201172,0,3.9003906,1.484375,4.3564453,3.46875H23.3837891c-0.0009766-0.0307617-0.0009766-0.0625-0.0009766-0.09375   C23.3828125,59.5673828,25.3876953,57.5625,27.8515625,57.5625z M70.3271484,81.1025391   C70.0917969,82.7543945,68.6552734,84,66.9873047,84H26.4501953c-1.6679688,0-3.1044922-1.2456055-3.3398438-2.8979492   L21.6220703,70.6875h50.1933594L70.3271484,81.1025391z M74.5800781,68.0180664   C74.1484375,68.449707,73.5761719,68.6875,72.96875,68.6875h-52.5c-1.2578125,0-2.28125-1.0234375-2.28125-2.28125   c0-0.6074219,0.2382813-1.1796875,0.6699219-1.6118164C19.2890625,64.362793,19.8613281,64.125,20.46875,64.125h2.0234375h48.5625   H72.96875c1.2578125,0,2.28125,1.0234375,2.28125,2.28125C75.25,67.0136719,75.0117188,67.5859375,74.5800781,68.0180664z"/><path d="M76.25,50.09375c-2.3603516,0-4.28125,1.9204102-4.28125,4.28125s1.9208984,4.28125,4.28125,4.28125   s4.28125-1.9204102,4.28125-4.28125S78.6103516,50.09375,76.25,50.09375z M76.25,56.65625   c-1.2578125,0-2.28125-1.0234375-2.28125-2.28125s1.0234375-2.28125,2.28125-2.28125s2.28125,1.0234375,2.28125,2.28125   S77.5078125,56.65625,76.25,56.65625z"/><path d="M82.8125,41.34375c-1.7578125,0-3.1875,1.4296875-3.1875,3.1875s1.4296875,3.1875,3.1875,3.1875S86,46.2890625,86,44.53125   S84.5703125,41.34375,82.8125,41.34375z M82.8125,45.71875c-0.6552734,0-1.1875-0.5327148-1.1875-1.1875   s0.5322266-1.1875,1.1875-1.1875S84,43.8764648,84,44.53125S83.4677734,45.71875,82.8125,45.71875z"/><path d="M20.375,51.09375c0-1.7578125-1.4296875-3.1875-3.1875-3.1875S14,49.3359375,14,51.09375s1.4296875,3.1875,3.1875,3.1875   S20.375,52.8515625,20.375,51.09375z M16,51.09375c0-0.6547852,0.5322266-1.1875,1.1875-1.1875s1.1875,0.5327148,1.1875,1.1875   s-0.5322266,1.1875-1.1875,1.1875S16,51.7485352,16,51.09375z"/></g></svg>