<svg xmlns="http://www.w3.org/2000/svg" xmlns:xlink="http://www.w3.org/1999/xlink" xml:space="preserve" version="1.1" style="shape-rendering:geometricPrecision;text-rendering:geometricPrecision;image-rendering:optimizeQuality;" viewBox="0 0 846.66 1058.325" x="0px" y="0px" fill-rule="evenodd" clip-rule="evenodd"><defs><style type="text/css">
   
    .fil0 {fill:black;fill-rule:nonzero}
   
  </style></defs><g><path class="fil0" d="M523.01 763.68l-5.41 -33.28 -35 50.62c-2.58,3.73 -5.61,4.78 -9.56,5.67 -10.88,2.5 -64.69,14.6 -84.3,14.6 -8.3,0 -14.39,-7.76 -12.52,-15.77l3.98 -22.48c-46.29,44.1 -102.04,15.49 -150.18,-9.81 -11.47,-6.05 -8.2,-21.32 5.19,-24.32 89.77,-20.46 85.13,-81.26 85.13,-156.1 0,-38.71 31.65,-70.35 70.36,-70.35l34.06 0 0 -409.41c0,-63.6 96.71,-63.53 96.71,0l0 409.41 29.49 0c38.69,0 70.35,31.68 70.35,70.35 0,83.48 24.06,173.25 -82.23,201.89 -7.64,2.04 -15.2,-3.24 -16.07,-11.02zm-72.54 -640.41l45.29 0 0 -30.22c0,-30.73 -45.29,-28.82 -45.29,0l0 30.22zm45.29 25.71l-45.29 0 0 25.71 45.29 0 0 -25.71zm0 51.42l-45.29 0 0 25.7 45.29 0 0 -25.7zm0 51.41l-45.29 0 0 25.71 45.29 0 0 -25.71zm0 51.42l-45.29 0 0 25.7 45.29 0 0 -25.7zm0 51.41l-45.29 0 0 25.71 45.29 0 0 -25.71zm0 51.42l-45.29 0 0 25.7 45.29 0 0 -25.7zm0 51.41l-45.29 0 0 44.99 45.29 0 0 -44.99zm43.03 164.13c1.26,14.71 -0.38,30.08 -6.09,46.57 -5.52,15.9 -29.73,7.5 -24.22,-8.4 4.62,-13.36 5.74,-26 4.41,-38.17l-27.44 0c-0.1,43.76 -5.59,83.2 -41.81,114.59 -12.74,11.02 -29.5,-8.37 -16.78,-19.38 29.37,-25.45 33.04,-59.51 33.01,-95.21l-24.71 0c1.26,14.71 -0.38,30.08 -6.09,46.57 -5.52,15.9 -29.73,7.5 -24.22,-8.4 4.62,-13.36 5.73,-26 4.41,-38.17l-23.44 0c-0.17,50.01 -7.53,91.56 -53.39,123.57 -13.79,9.63 -28.43,-11.36 -14.66,-20.98 37.68,-26.3 42.49,-61.67 42.48,-102.59l-13.38 0c-1.45,58.82 -25.63,100.86 -76.92,122.95 59.93,27.9 87.93,21.4 120.94,-39.73 6.05,-13.67 26.98,-7.42 24.38,7.42l-10.95 61.86c20.07,-2.89 48.81,-9.23 60.05,-11.77l50.02 -72.34c6.3,-9.71 21.51,-6.72 23.4,4.91l8.2 50.44c50.29,-21.07 51.22,-57.82 51.22,-123.74l-14.79 0c-0.03,24.9 -1.83,50.37 -11.56,73.36 -6.51,15.5 -30.13,5.6 -23.59,-9.94 8.1,-19.16 9.53,-42.03 9.55,-63.42l-18.03 0zm12.17 -93.43l-160.26 0c-24.54,0 -44.65,20.1 -44.65,44.64l0 18.68 249.55 0 0 -18.68c0,-24.56 -20.06,-44.64 -44.64,-44.64z"/></g><text x="0" y="861.66" fill="#000000" font-size="5px" font-weight="bold" font-family="'Helvetica Neue', Helvetica, Arial-Unicode, Arial, Sans-serif">Created by jokokerto</text><text x="0" y="866.66" fill="#000000" font-size="5px" font-weight="bold" font-family="'Helvetica Neue', Helvetica, Arial-Unicode, Arial, Sans-serif">from the Noun Project</text></svg>