<svg xmlns="http://www.w3.org/2000/svg" xmlns:xlink="http://www.w3.org/1999/xlink" version="1.1" x="0px" y="0px" viewBox="0 0 69 86.25" style="enable-background:new 0 0 69 69;" xml:space="preserve"><g><path d="M66.84375,65.26756h-1.8576c-0.00354-0.0979-0.00671-0.19653-0.04083-0.29395   c-1.13239-3.23536-1.19086-6.51307-0.20367-9.75391h1.66461c0.55273,0,1-0.44727,1-1v-5.86035c0-0.55273-0.44727-1-1-1H53.45117   V15.57481c0.50403-0.05188,0.90137-0.46228,0.90137-0.9801V5.92576c0-2.3125-2.06641-4.19336-4.60645-4.19336   c-2.54102,0-4.60742,1.88086-4.60742,4.19336v8.66895c0,0.51807,0.39795,0.92896,0.90234,0.98022v31.78442H35.72626   l0.44537-3.83984h3.5647c0.55273,0,1-0.44727,1-1v-3.41992c0-10.91211-8.87793-19.79004-19.79004-19.79004   S1.15625,28.18748,1.15625,39.09959v3.41992c0,0.55273,0.44775,1,1,1h3.57214l2.51544,21.74805H2.4043c-0.55225,0-1,0.44727-1,1   s0.44775,1,1,1c14.27265,0.00001,62.08836,0.00008,64.43945,0c0.55273,0,1-0.44727,1-1S67.39648,65.26756,66.84375,65.26756z    M48.04102,15.59471h3.41016v31.7627h-3.41016V15.59471z M47.13867,5.92576c0-1.20898,1.16992-2.19336,2.60742-2.19336   s2.60645,0.98438,2.60645,2.19336v7.66894h-5.21387V5.92576z M62.94653,65.26756h-2.90552V55.21971h2.61176   C61.75031,58.56077,61.8526,61.93333,62.94653,65.26756z M42.1377,55.21971h2.47559v10.04786H42.1377V55.21971z M40.1377,65.26756   h-2.90552c1.09393-3.33423,1.19623-6.70679,0.29376-10.04786h2.61176V65.26756z M46.61328,55.21971h2.47559v10.04786h-2.47559   V55.21971z M51.08887,55.21971h2.47656v10.04786h-2.47656V55.21971z M55.56543,55.21971h2.47559v10.04786h-2.47559V55.21971z    M65.40625,53.21971H35.04883l0.44824-3.86035h29.90918V53.21971z M35.43707,55.21971   c1.69354,5.55977-0.2214,9.40882-0.24451,10.04786h-1.54346l1.16547-10.04786H35.43707z M3.15625,41.51951v-2.41992   c0-9.80957,7.98047-17.79004,17.79004-17.79004s17.79004,7.98047,17.79004,17.79004v2.41992h-2.3327l0.57587-4.96484   c0.0332-0.2832-0.05664-0.56738-0.24609-0.78027c-0.19043-0.21289-0.46191-0.33496-0.74707-0.33496H5.91602   c-0.28516,0-0.55664,0.12207-0.74658,0.33496s-0.27979,0.49707-0.24658,0.78027l0.57422,4.96484H3.15625z M7.03857,37.43943   h27.82568l-3.22827,27.82813H10.25708L7.03857,37.43943z"/></g></svg>