<svg xmlns="http://www.w3.org/2000/svg" viewBox="0 0 64 80" x="0px" y="0px"><title>broom, clean, cleaner, cleaning, sweep, </title><g><rect x="45.6" y="13.49" width="2.13" height="2" transform="translate(3.42 37.24) rotate(-45)"/><path d="M2.38,41.37a2,2,0,0,0,.51,1.56A80.74,80.74,0,0,0,21.06,61.1a2,2,0,0,0,1.34.52h.22a2,2,0,0,0,1.47-.92l9-14.16a1.56,1.56,0,0,0,.14-.33,1.43,1.43,0,0,0,.3-.2l1.76-1.76a2,2,0,0,0,0-2.83l-2.82-2.83L36,35a2,2,0,0,0,0-2.83L57.22,11l3.54-3.53A3.4,3.4,0,0,0,61.14,7l.08-.15a2.58,2.58,0,0,0,.19-.37,1.55,1.55,0,0,0,.08-.23c0-.11.07-.21.09-.32a2.88,2.88,0,0,0,0-1.17,2.07,2.07,0,0,0-.1-.33,1.87,1.87,0,0,0-.07-.22,2.58,2.58,0,0,0-.19-.37l-.08-.15a3.4,3.4,0,0,0-.38-.47,3,3,0,0,0-4.24,0l-8.4,8.4L49.54,13,54.4,8.17l1.41,1.42L34.6,30.8l-.71-.71-.71-.7,12-12L43.79,16l-12,12h0a2,2,0,0,0-2.83,0L25.4,31.51l-2.82-2.83a2,2,0,0,0-2.83,0L18,30.45a1.49,1.49,0,0,0-.2.29,1.3,1.3,0,0,0-.32.14l-14.17,9A2,2,0,0,0,2.38,41.37ZM55.81,6.76l2.12-2.12a1,1,0,0,1,1.42,0,1,1,0,0,1,0,1.41L57.22,8.17Zm-29,26.16,3.53-3.53h0l4.25,4.24-3.54,3.53L28.94,35Zm-5.66-2.83,6.37,6.37L31.06,40h0l2.83,2.83-1.41,1.42-6.37-6.37-6.36-6.36Zm-3,2.69,6.51,6.51,6.5,6.5L22.4,59.62l-.12-.11c-.47-.34-.93-.69-1.39-1l5.35-8a1,1,0,0,0-1.67-1.11l-5.27,7.9c-.76-.6-1.51-1.22-2.25-1.85l6.3-7.69a1,1,0,0,0-1.55-1.27l-6.24,7.63c-.74-.66-1.47-1.35-2.18-2h0l7.08-7.07a1,1,0,0,0,0-1.41,1,1,0,0,0-1.42,0L12,50.6h0c-.7-.72-1.38-1.44-2.05-2.18l7.63-6.25a1,1,0,0,0-1.26-1.55l-7.7,6.3c-.63-.74-1.25-1.49-1.85-2.25l7.91-5.27a1,1,0,0,0-1.11-1.66l-8,5.34c-.35-.46-.71-.91-1-1.39l-.1-.12Z"/><path d="M17,24a1,1,0,0,0,2,0,3,3,0,0,1,3-3,1,1,0,0,0,0-2,3,3,0,0,1-3-3,1,1,0,0,0-2,0,3,3,0,0,1-3,3,1,1,0,0,0,0,2A3,3,0,0,1,17,24Zm1-5a5.26,5.26,0,0,0,1,1,5.26,5.26,0,0,0-1,1,5.26,5.26,0,0,0-1-1A5.26,5.26,0,0,0,18,19Z"/><path d="M39,50a1,1,0,0,0-2,0,3,3,0,0,1-3,3,1,1,0,0,0,0,2,3,3,0,0,1,3,3,1,1,0,0,0,2,0,3,3,0,0,1,3-3,1,1,0,0,0,0-2A3,3,0,0,1,39,50Zm-1,5a5.26,5.26,0,0,0-1-1,5.26,5.26,0,0,0,1-1,5.26,5.26,0,0,0,1,1A5.26,5.26,0,0,0,38,55Z"/><polygon points="47 41 47 39 49 39 49 37 47 37 47 35 45 35 45 37 43 37 43 39 45 39 45 41 47 41"/><polygon points="33 10 33 12 31 12 31 14 33 14 33 16 35 16 35 14 37 14 37 12 35 12 35 10 33 10"/></g></svg>