<svg xmlns="http://www.w3.org/2000/svg" xmlns:xlink="http://www.w3.org/1999/xlink" version="1.1" x="0px" y="0px" viewBox="0 0 64 80" style="enable-background:new 0 0 64 64;" xml:space="preserve"><g><rect x="40.114" y="52.425" transform="matrix(0.9049 -0.4256 0.4256 0.9049 -18.8289 22.5788)" width="2" height="2.001"/><rect x="36.495" y="54.129" transform="matrix(0.9049 -0.4256 0.4256 0.9049 -19.8979 21.2004)" width="2" height="2.001"/><rect x="29.255" y="57.535" transform="matrix(0.9049 -0.4256 0.4256 0.9049 -22.036 18.4432)" width="2" height="2.001"/><rect x="32.876" y="55.832" transform="matrix(0.9049 -0.4256 0.4256 0.9049 -20.9669 19.822)" width="2" height="2.001"/><path d="M59,1c-2.206,0-4,1.794-4,4v36.365l-0.219,0.103c-0.512-1.907-1.933-3.483-3.818-4.137C50.629,34.336,48.082,32,45,32   c-1.914,0-3.679,0.912-4.8,2.433c-1.412-0.57-2.988-0.57-4.4,0C34.679,32.912,32.914,32,31,32c-3.309,0-6,2.691-6,6   c0,1.349,0.466,2.639,1.277,3.682c-1.748,0.899-3.012,2.611-3.24,4.649c-0.419,0.145-0.819,0.337-1.195,0.57   c-0.993-1.763-2.285-3.353-3.861-4.665C18.601,41.685,19,40.892,19,40c0-1.302-0.839-2.402-2-2.816V5c0-2.206-1.794-4-4-4   S9,2.794,9,5v32.184C7.839,37.598,7,38.698,7,40c0,0.892,0.399,1.685,1.018,2.235c-3.251,2.706-5.375,6.554-5.905,10.796L0.867,63   h22.168h2.098H56c3.859,0,7-3.141,7-7V42v-1V5C63,2.794,61.206,1,59,1z M59,3c1.103,0,2,0.897,2,2v4h-4V5C57,3.897,57.897,3,59,3z    M27,38c0-2.206,1.794-4,4-4c1.492,0,2.85,0.838,3.542,2.188l0.489,0.952l0.917-0.553c1.291-0.779,2.813-0.779,4.104,0l0.917,0.553   l0.489-0.952C42.15,34.838,43.508,34,45,34c2.189,0,3.974,1.769,4,3.951l-0.01,0.968l0.803,0.161   c1.63,0.328,2.871,1.651,3.145,3.255l-4.186,1.97C48.02,41.805,45.721,40,43,40c-0.748,0-1.494,0.147-2.2,0.433   C39.679,38.912,37.914,38,36,38c-2.279,0-4.301,1.271-5.313,3.254C30.135,41.085,29.57,41,29,41c-0.196,0-0.383,0.036-0.574,0.054   C27.53,40.297,27,39.181,27,38z M24.207,48.08l0.803-0.161V47.1c0-0.051-0.004-0.1-0.01-0.149c0.027-2.183,1.812-3.95,4-3.95   c0.604,0,1.204,0.149,1.787,0.444l1.062,0.537l0.347-1.139C32.712,41.143,34.241,40,36,40c1.492,0,2.85,0.838,3.542,2.188   l0.489,0.952l0.917-0.553C41.594,42.197,42.284,42,43,42c1.923,0,3.523,1.353,3.904,3.175L24.238,55.841l-0.351-2.81   c-0.188-1.502-0.597-2.944-1.163-4.314C23.17,48.408,23.672,48.187,24.207,48.08z M13,3c1.103,0,2,0.897,2,2v32h-4V5   C11,3.897,11.897,3,13,3z M10,39h6c0.552,0,1,0.448,1,1s-0.448,1-1,1h-6c-0.552,0-1-0.448-1-1S9.448,39,10,39z M3.133,61   l0.965-7.721C4.619,49.114,6.891,45.389,10.33,43h5.34c3.44,2.389,5.711,6.114,6.232,10.279L22.867,61H3.133z M61,56   c0,2.757-2.243,5-5,5H24.883l-0.384-3.071L56.224,43H61V56z M57,41V11h4v30H57z"/><path d="M10.113,53.031l-0.73,5.845l1.984,0.248l0.73-5.844c0.046-0.364,0.104-0.726,0.177-1.082l-1.961-0.396   C10.231,52.207,10.165,52.617,10.113,53.031z"/><path d="M15.111,49.676l-1.893,0.648c0.328,0.956,0.558,1.951,0.684,2.955l0.605,4.845l1.984-0.248l-0.605-4.845   C15.744,51.891,15.483,50.763,15.111,49.676z"/><path d="M9.889,44.358c-2.07,2.476-3.376,5.475-3.775,8.673l-0.48,3.845l1.984,0.248l0.48-3.845   c0.352-2.816,1.502-5.458,3.324-7.638L9.889,44.358z"/><path d="M17.626,46.485l-1.715,1.029c1.064,1.773,1.734,3.712,1.991,5.765l0.73,5.845l1.984-0.248l-0.73-5.845   C19.596,50.701,18.835,48.498,17.626,46.485z"/><circle cx="29" cy="49" r="1"/><circle cx="31" cy="37" r="1"/><circle cx="44" cy="37" r="1"/><circle cx="36" cy="43" r="1"/><circle cx="34" cy="47" r="1"/><circle cx="43" cy="45" r="1"/></g></svg>