<svg xmlns="http://www.w3.org/2000/svg" xmlns:xlink="http://www.w3.org/1999/xlink" version="1.1" x="0px" y="0px" viewBox="0 0 64 80" style="enable-background:new 0 0 64 64;" xml:space="preserve"><g><path d="M45,31c-5.514,0-10,4.486-10,10v11c0,1.654,1.346,3,3,3h14c1.654,0,3-1.346,3-3V41C55,35.486,50.514,31,45,31z M52,53H38   c-0.552,0-1-0.448-1-1v-5h3.101c0.465,2.279,2.484,4,4.899,4s4.434-1.721,4.899-4H53v5C53,52.552,52.552,53,52,53z M42,46   c0-1.654,1.346-3,3-3s3,1.346,3,3s-1.346,3-3,3S42,47.654,42,46z M53,45h-3.101c-0.465-2.279-2.484-4-4.899-4s-4.434,1.721-4.899,4   H37v-4c0-4.411,3.589-8,8-8s8,3.589,8,8V45z"/><path d="M59.97,41.462L59,41.22V41c0-2.586-0.717-5.002-1.945-7.083C60.831,30.671,63,26.025,63,21c0-6.065-4.935-11-11-11   s-11,4.935-11,11v2c-1.103,0-2,0.897-2,2v3.37c-1.403,0.669-2.681,1.555-3.779,2.63H34c-0.552,0-1-0.448-1-1V13   c0-6.617-5.383-12-12-12S9,6.383,9,13v34c-1.103,0-2,0.897-2,2v2H4c-1.654,0-3,1.346-3,3v7c0,1.103,0.897,2,2,2h20   c1.103,0,2-0.897,2-2v-7c0-1.654-1.346-3-3-3h-3v-2c0-1.103-0.897-2-2-2V13c0-2.206,1.794-4,4-4s4,1.794,4,4v17   c0,3.918,2.568,7.367,6.228,8.556C31.087,39.351,31,40.165,31,41v0.22l-0.97,0.242C28.246,41.907,27,43.504,27,45.343V58   c0,2.757,2.243,5,5,5h26c2.757,0,5-2.243,5-5V45.343C63,43.504,61.754,41.907,59.97,41.462z M55.918,32.259   c-0.84-1.047-1.827-1.97-2.93-2.74c0.657-0.544,1.237-1.16,1.745-1.828l3.333,2.222C57.441,30.761,56.724,31.546,55.918,32.259z    M47.424,19h-4.192c0.217-0.95,0.585-1.839,1.076-2.649l3.435,2.061C47.627,18.602,47.514,18.794,47.424,19z M49,23v-2   c0-1.654,1.346-3,3-3s3,1.346,3,3c0,2.977-1.455,5.738-3.876,7.43c-0.041-0.02-0.082-0.04-0.124-0.06V25C51,23.897,50.103,23,49,23   z M60.753,23.604L56.892,22.5C56.959,22.006,57,21.507,57,21h4C61,21.885,60.901,22.751,60.753,23.604z M56.43,24.449l3.854,1.101   c-0.293,0.931-0.675,1.824-1.142,2.677l-3.345-2.23C56.05,25.499,56.256,24.981,56.43,24.449z M56.576,19   c-0.09-0.206-0.203-0.398-0.32-0.588l3.435-2.061c0.491,0.81,0.86,1.699,1.076,2.649H56.576z M58.466,14.754l-3.601,2.16   c-0.206-0.145-0.43-0.264-0.657-0.378l1.278-3.834C56.617,13.18,57.626,13.885,58.466,14.754z M53.565,12.145l-1.294,3.882   C52.179,16.022,52.093,16,52,16s-0.179,0.022-0.271,0.027l-1.294-3.882C50.944,12.056,51.465,12,52,12S53.056,12.056,53.565,12.145   z M48.514,12.703l1.278,3.834c-0.228,0.113-0.451,0.232-0.657,0.378l-3.601-2.16C46.374,13.885,47.383,13.18,48.514,12.703z M43,21   h4v2h-4V21z M41,25h8v2.59C47.731,27.21,46.39,27,45,27s-2.731,0.21-4,0.59V25z M27,30v-1h4v1c0,0.14,0.023,0.274,0.041,0.409   l-3.548,2.129C27.182,31.744,27,30.89,27,30z M31,27h-4v-2h4V27z M31,23h-4v-2h4V23z M31,19h-4v-2h4V19z M26.372,10.343l3.44-2.064   c0.453,0.843,0.79,1.756,0.987,2.721H26.65C26.57,10.774,26.477,10.555,26.372,10.343z M31,13v2h-4v-2H31z M28.692,6.619   l-3.497,2.098c-0.178-0.174-0.369-0.334-0.567-0.485l2.065-3.443C27.438,5.308,28.112,5.922,28.692,6.619z M20,7.09   c-0.292,0.049-0.579,0.116-0.855,0.207l-2.09-3.483c0.919-0.396,1.909-0.66,2.945-0.764V7.09z M22,3.051   c1.036,0.103,2.026,0.367,2.945,0.764l-2.089,3.483C22.579,7.207,22.293,7.14,22,7.09V3.051z M15.307,4.789l2.066,3.442   c-0.198,0.151-0.389,0.311-0.567,0.486l-3.497-2.098C13.888,5.922,14.562,5.308,15.307,4.789z M15,41h-4v-4h4V41z M15,35h-4v-2h4   V35z M15,31h-4v-2h4V31z M15,27h-4v-2h4V27z M15,23h-4v-2h4V23z M15,19h-4v-2h4V19z M15,15h-4v-2h4V15z M15.35,11h-4.148   c0.197-0.965,0.534-1.878,0.987-2.721l3.44,2.064C15.523,10.555,15.43,10.774,15.35,11z M3,61v-2h20v2H3z M22,53   c0.552,0,1,0.448,1,1v3H3v-3c0-0.552,0.448-1,1-1h3c0,1.103,0.897,2,2,2h8c1.103,0,2-0.897,2-2H22z M17.002,53H9v-4h8L17.002,53z    M11,47v-4h4v4H11z M28.482,34.276l3.48-2.088c0.434,0.404,0.985,0.676,1.598,0.767c-0.781,1.107-1.405,2.331-1.84,3.641   C30.418,36.145,29.301,35.333,28.482,34.276z M29,58V45.343c0-0.92,0.623-1.718,1.515-1.941L31,43.28V58   c0,1.13,0.391,2.162,1.026,3H32C30.346,61,29,59.654,29,58z M36,61c-1.654,0-3-1.346-3-3V41c0-6.617,5.383-12,12-12s12,5.383,12,12   v17c0,1.654-1.346,3-3,3H36z M61,58c0,1.654-1.346,3-3,3h-0.026C58.609,60.162,59,59.13,59,58V43.28l0.485,0.121   C60.377,43.625,61,44.423,61,45.343V58z"/></g></svg>