<svg xmlns="http://www.w3.org/2000/svg" xmlns:xlink="http://www.w3.org/1999/xlink" version="1.0" x="0px" y="0px" viewBox="0 0 100 125" enable-background="new 0 0 100 100" xml:space="preserve"><path d="M75,30c0,1.836-1.497,3.333-3.333,3.333S68.333,31.836,68.333,30s1.498-3.333,3.334-3.333S75,28.164,75,30z"/><path d="M56.667,36.667L60,43.333h10v33.333c0,3.682-2.985,6.666-6.667,6.666H10V90h53.333c7.363,0,13.334-5.97,13.334-13.333  V43.333h10L90,36.667H56.667z"/><path d="M63.333,70H16.667V53.333C16.667,51.494,18.159,50,20,50s3.333,1.494,3.333,3.333v10h40v-6.666H30v-3.334  c0-4.345-2.792-8.007-6.667-9.388v-7.279C23.333,32.988,26.323,30,30,30h33.333v-6.667H30c-7.363,0-13.333,5.97-13.333,13.333v7.279  C12.792,45.322,10,48.988,10,53.333v23.334h53.333V70z"/><path d="M83.333,23.333c0-1.843,1.491-3.333,3.334-3.333H90v-3.333h-3.333c-1.843,0-3.334-1.491-3.334-3.333V10H80v3.333  c0,1.839-1.494,3.333-3.333,3.333h-3.334V20c0,0,3.334,0,3.334-0.003C78.506,20,79.997,21.491,80,23.333v3.333h3.333V23.333z"/><path d="M70,15c0,2.76-2.236,5-5,5c-2.754,0-5-2.24-5-5s2.246-5,5-5C67.764,10,70,12.24,70,15z"/><path d="M53.333,16.667C53.333,18.502,51.836,20,50,20s-3.333-1.498-3.333-3.333s1.498-3.333,3.333-3.333  S53.333,14.831,53.333,16.667z"/></svg>